TexturaLiberaCond.sfdir
StartChar: ampersand
Encoding: 38 38 6
Width: 400
Flags: W
VStem: 34 92<83 245 433 495> 194 92<65 304 396 517>
LayerCount: 2
Back
SplineSet
160 350 m 25
 320 350 l 1049
360 80 m 1
 280 0 l 1
 240 40 l 1
 240 550 l 9
 160 600 l 1
 80 520 l 17
 80 400 l 1
 160 350 l 1
 80 270 l 25
 79 50 l 25
 160 0 l 25
 240 80 l 1041
EndSplineSet
Fore
SplineSet
195 14 m 1
 135 -46 l 1
 54 4 l 1
 33 25 l 1
 34 245 l 1
 109 320 l 1
 55 354 l 1
 34 375 l 1
 34 495 l 1
 185 646 l 1
 265 596 l 1
 286 575 l 1
 286 396 l 1
 345 396 l 1
 366 375 l 1
 295 304 l 1
 286 304 l 1
 286 65 l 1
 305 46 l 1
 385 126 l 1
 406 105 l 1
 255 -46 l 1
 195 14 l 1
135 304 m 1
 126 295 l 1
 125 83 l 1
 185 46 l 2
 185 46 192 53 194 55 c 2
 194 304 l 1
 135 304 l 1
194 396 m 1
 194 517 l 1
 135 554 l 2
 135 554 128 547 126 545 c 2
 126 433 l 1
 185 396 l 1
 194 396 l 1
EndSplineSet
EndChar
StartChar: one
Encoding: 49 49 17
Width: 320
Flags: W
HStem: 426 20G<145 185> 426 20G<145 185>
VStem: 114 92<75 353>
LayerCount: 2
Back
SplineSet
100 40 m 25
 180 0 l 1
 220 40 l 1049
180 360 m 25
 140 400 l 25
 100 360 l 1049
160 380 m 9
 160 20 l 1025
EndSplineSet
Fore
SplineSet
206 405 m 1xa0
 226 385 l 1
 206 365 l 1
 206 47 l 1
 212 53 241 82 245 86 c 1
 266 65 l 1
 155 -46 l 1
 75 -6 l 1
 54 15 l 1
 114 75 l 1
 114 353 l 1
 75 314 l 1
 54 335 l 1
 165 446 l 1
 185 426 l 1
 206 405 l 1xa0
EndSplineSet
Substitution2: "Subscript forms-1" one.inferior
Substitution2: "Superscript forms-1" one.superior
EndChar
StartChar: seven
Encoding: 55 55 23
Width: 320
Flags: W
HStem: -196 21G<135 175> 304 92<125.846 226.5> 426 20G<65 133 265 325> 426 20G<65 133 265 325>
VStem: 114 92<-105 98.617>
LayerCount: 2
Back
SplineSet
140 -110 m 25
 180 -150 l 1049
60 400 m 1
 60 400 110 350 180 350 c 3
 223 350 280 400 280 400 c 1
 280 400 160 276 160 0 c 3
 160 -32 160 -130 161 -130 c 1025
80 125 m 25
 80 125 118 150 140 150 c 24
 175 150 165 125 200 125 c 24
 222 125 260 150 261 150 c 1049
EndSplineSet
Fore
SplineSet
34 100 m 1xe8
 105 171 l 1
 105 171 123 184 142 191 c 1
 157 243 175 283 191 313 c 1
 180 308 166 304 155 304 c 0
 85 304 35 354 35 354 c 1
 14 375 l 1
 85 446 l 1
 85 446 135 396 205 396 c 0
 248 396 305 446 305 446 c 1
 326 425 l 1
 326 425 249 345 218 171 c 1
 220 171 223 171 225 171 c 0
 247 171 285 196 286 196 c 2
 307 175 l 1
 236 104 l 2
 235 104 223 96 208 89 c 1
 207 69 206 47 206 25 c 0
 206 -7 206 -103 207 -105 c 2
 206 -106 l 1
 226 -125 l 1
 155 -196 l 1
 94 -135 l 1
 114 -115 l 1
 114 -84 114 -43 114 -25 c 0
 114 22 117 66 123 104 c 1
 121 104 118 104 115 104 c 0
 93 104 55 79 55 79 c 1
 34 100 l 1xe8
EndSplineSet
Substitution2: "Subscript forms-1" seven.inferior
Substitution2: "Superscript forms-1" seven.superior
EndChar
StartChar: T
Encoding: 84 84 52
Width: 560
Flags: W
HStem: -46 92<236.001 323.467> 454 21G<35 75> 480 20G<205 235> 554 92<174.526 235>
VStem: 54 92<138.485 314.51> 205 30<77 427 486 500> 274 92<125 425>
AnchorPoint: "blwmark" 280 0 basechar 0
AnchorPoint: "abvmark" 320 700 basechar 0
LayerCount: 2
Back
SplineSet
220 450 m 1
 220 100 l 1049
320 450 m 1
 320 100 l 1049
200 450 m 1
 200 450 100 356 100 250 c 3
 100 84 171 0 280 0 c 3
 375 0 481 150 482 150 c 1049
80 500 m 17
 80 500 144 600 200 600 c 27
 264 600 278 500 342 500 c 19
 404 500 460 600 461 600 c 1033
EndSplineSet
Fore
SplineSet
55 454 m 1
 34 475 l 1
 34 475 54 507 82 535 c 2
 153 605 l 2
 175 627 201 646 225 646 c 0
 245 646 260 636 273 623 c 2
 294 602 l 2
 306 590 318 573 329 560 c 0
 340 552 352 546 367 546 c 0
 379 546 392 550 402 556 c 1
 410 567 414 574 415 575 c 2
 486 646 l 2
 507 625 l 2
 505 622 486 589 459 562 c 2
 388 492 l 2
 381 485 374 479 366 473 c 1
 366 125 l 1
 295 54 l 1
 274 75 l 1
 274 425 l 1
 304 455 l 1
 290 458 279 467 269 477 c 2
 248 498 l 2
 235 511 225 526 213 540 c 0
 202 548 190 554 175 554 c 0
 163 554 151 550 138 542 c 1
 131 533 126 525 126 525 c 1
 55 454 l 1
246 475 m 1
 240 468 l 2
 239 467 237 466 235 464 c 2
 235 60 l 1
 256 51 280 46 305 46 c 0
 341 46 379 68 411 94 c 1
 426 111 435 124 436 125 c 2
 507 196 l 2
 528 175 l 1
 525 172 501 139 467 105 c 2
 397 34 l 2
 358 -5 305 -46 255 -46 c 0
 209 -46 170 -31 140 -1 c 2
 118 20 l 2
 77 61 54 129 54 225 c 0
 54 320 134 405 151 422 c 2
 205 476 l 1
 205 500 l 1
 235 500 l 1
 235 486 l 1
 246 475 l 1
205 427 m 1
 177 390 146 334 146 275 c 0
 146 188 166 122 200 81 c 0
 202 80 203 78 205 77 c 2
 205 427 l 1
EndSplineSet
EndChar
StartChar: bracketright
Encoding: 93 93 61
Width: 240
Flags: W
HStem: -196 92<65 114> 654 92<65 114>
VStem: 114 92<-104 654>
LayerCount: 2
Back
SplineSet
40 700 m 25
 160 700 l 29
 160 -150 l 29
 40 -150 l 1033
EndSplineSet
Fore
SplineSet
-6 675 m 1
 65 746 l 1
 185 746 l 1
 206 725 l 1
 206 -125 l 1
 135 -196 l 1
 15 -196 l 1
 -6 -175 l 1
 65 -104 l 1
 114 -104 l 1
 114 654 l 1
 15 654 l 1
 -6 675 l 1
EndSplineSet
EndChar
StartChar: a
Encoding: 97 97 65
Width: 320
Flags: W
HStem: 426 20G<145 245> 426 20G<145 245>
VStem: 34 92<85 165> 194 92<75 179 276 334>
AnchorPoint: "blwmark" 160 0 basechar 0
AnchorPoint: "abvmark" 180 500 basechar 0
LayerCount: 2
Back
SplineSet
100 280 m 17
 80 340 l 1
 140 400 l 1
 240 375 l 1
 240 20 l 1
 260 0 l 1
 300 40 l 1049
240 100 m 25
 140 0 l 1
 80 60 l 1
 80 190 l 1
 140 250 l 1
 140 250 155 225 200 225 c 3
 215 225 240 225 240 225 c 1033
EndSplineSet
Fore
SplineSet
75 234 m 1xb0
 54 255 l 1
 34 315 l 1
 165 446 l 1
 265 421 l 1
 286 400 l 1
 286 250 l 1
 286 125 l 1
 286 47 l 1
 325 86 l 1
 346 65 l 1
 235 -46 l 1
 194 -5 l 1
 194 33 l 1
 115 -46 l 1
 34 35 l 1
 34 165 l 1
 165 296 l 1
 176 285 l 2
 181 282 186 279 194 276 c 1
 194 334 l 1
 131 350 l 1
 146 305 l 1
 75 234 l 1xb0
194 179 m 1
 175 179 l 2
 150 179 135 187 126 193 c 1
 126 85 l 1
 165 46 l 1
 194 75 l 1
 194 179 l 1
EndSplineSet
Substitution2: "Stylistic alternates-1" ascript
EndChar
StartChar: c
Encoding: 99 99 67
Width: 280
Flags: W
HStem: 426 20G<165 205> 426 20G<165 205>
VStem: 34 92<70.6892 295>
AnchorPoint: "blwmark" 160 0 basechar 0
AnchorPoint: "abvmark" 160 500 basechar 0
LayerCount: 2
Back
SplineSet
240 320 m 9
 160 400 l 25
 80 320 l 25
 80 80 l 25
 160 0 l 25
 240 80 l 1041
EndSplineSet
Fore
SplineSet
286 345 m 1xa0
 215 274 l 1
 135 354 l 1
 126 345 l 1
 126 105 l 2
 126 73 168 63 185 46 c 1
 265 126 l 1
 286 105 l 1
 135 -46 l 1
 34 55 l 1
 34 295 l 1
 185 446 l 1
 286 345 l 1xa0
EndSplineSet
EndChar
StartChar: y
Encoding: 121 121 89
Width: 320
Flags: W
HStem: -196 92<73 131.5> 426 20G<65 105 225 265> 426 20G<65 105 225 265>
VStem: 34 92<105 355> 194 92<-151.691 13 55 355>
AnchorPoint: "abvmark" 160 500 basechar 0
LayerCount: 2
Back
SplineSet
100 360 m 25
 60 400 l 1049
260 360 m 25
 220 400 l 1049
40 -200 m 17
 40 -200 70 -150 100 -150 c 8
 137 -150 143 -200 180 -200 c 24
 210 -200 240 -150 240 -150 c 1
 240 380 l 1025
240 80 m 9
 160 0 l 25
 80 80 l 1
 80 380 l 1049
EndSplineSet
Fore
SplineSet
15 -246 m 1xd8
 -6 -225 l 1
 -6 -225 4 -209 18 -195 c 2
 88 -124 l 2
 89 -123 l 0
 100 -112 112 -104 125 -104 c 0
 138 -104 147 -110 155 -118 c 2
 176 -139 l 2
 177 -140 l 0
 179 -142 182 -145 184 -147 c 0
 187 -149 191 -151 194 -152 c 2
 194 13 l 1
 135 -46 l 1
 34 55 l 1
 34 355 l 1
 14 375 l 1
 85 446 l 1
 105 426 l 1
 126 405 l 1
 146 385 l 1
 126 365 l 1
 126 105 l 1
 185 46 l 1
 194 55 l 1
 194 355 l 1
 174 375 l 1
 245 446 l 1
 265 426 l 1
 286 405 l 1
 306 385 l 1
 286 365 l 1
 286 105 l 1
 286 -125 l 1
 286 -125 276 -141 262 -155 c 2
 192 -226 l 2
 181 -237 168 -246 155 -246 c 0
 142 -246 133 -240 125 -232 c 2
 104 -211 l 2
 101 -208 98 -206 96 -203 c 0
 90 -199 83 -196 75 -196 c 0
 71 -196 67 -197 62 -199 c 2
 15 -246 l 1xd8
EndSplineSet
EndChar
StartChar: bar
Encoding: 124 124 92
Width: 200
Flags: W
HStem: -196 21G<55 95>
VStem: 54 92<-125 675>
LayerCount: 2
Back
SplineSet
100 -150 m 25
 100 700 l 1053
EndSplineSet
Fore
SplineSet
75 -196 m 1
 54 -175 l 1
 54 675 l 1
 125 746 l 1
 146 725 l 1
 146 -125 l 1
 75 -196 l 1
EndSplineSet
EndChar
StartChar: currency
Encoding: 164 164 207
Width: 400
Flags: W
HStem: -46 21G<-5 35 315 355> 526 20G<185 239.737> 626 20G<45 85 365 405>
VStem: 34 92<214 375> 274 92<225 386>
LayerCount: 2
Back
SplineSet
360 0 m 25
 280 125 l 1049
40 0 m 25
 120 125 l 1049
360 600 m 25
 280 475 l 1049
40 600 m 25
 120 475 l 1049
180 500 m 25
 80 400 l 25
 80 180 l 25
 220 100 l 25
 320 200 l 25
 320 420 l 25
 180 500 l 25
EndSplineSet
Fore
SplineSet
155 454 m 1
 126 425 l 1
 126 214 l 1
 245 146 l 2
 245 146 271 172 274 175 c 2
 274 386 l 1
 155 454 l 1
65 646 m 1
 86 625 l 1
 163 504 l 1
 205 546 l 1
 271 508 l 1
 314 575 l 1
 385 646 l 1
 406 625 l 1
 326 500 l 1
 311 485 l 1
 345 466 l 1
 366 445 l 1
 366 225 l 1
 308 167 l 1
 326 150 l 1
 406 25 l 1
 335 -46 l 1
 314 -25 l 1
 237 96 l 1
 195 54 l 1
 129 92 l 1
 86 25 l 1
 15 -46 l 1
 -6 -25 l 1
 74 100 l 1
 89 115 l 1
 55 134 l 1
 34 155 l 1
 34 375 l 1
 92 433 l 1
 74 450 l 1
 -6 575 l 1
 65 646 l 1
EndSplineSet
EndChar
StartChar: dieresis
Encoding: 168 168 101
Width: 320
Flags: W
HStem: 514 132
VStem: 14 292
LayerCount: 2
Back
SplineSet
220 600 m 25
 260 560 l 1049
60 600 m 25
 100 560 l 1049
EndSplineSet
Fore
SplineSet
14 575 m 1
 85 646 l 1
 146 585 l 1
 75 514 l 1
 14 575 l 1
174 575 m 1
 245 646 l 1
 306 585 l 1
 235 514 l 1
 174 575 l 1
EndSplineSet
EndChar
StartChar: guillemotleft
Encoding: 171 171 215
Width: 440
Flags: W
LayerCount: 2
Back
SplineSet
380 325 m 21
 380 325 363 295 340 275 c 4
 264 207 240 200 240 200 c 5
 240 200 291 174 360 100 c 4
 377 82 400 50 400 50 c 1037
180 325 m 17
 180 325 163 295 140 275 c 0
 64 207 40 200 40 200 c 1
 40 200 91 174 160 100 c 0
 177 82 200 50 200 50 c 1033
EndSplineSet
Fore
SplineSet
205 371 m 1
 226 350 l 1
 226 350 212 326 193 307 c 2
 123 236 l 1
 122 236 l 2
 121 235 122 235 121 234 c 0
 119 232 117 231 115 229 c 0
 112 226 105 221 104 220 c 1
 121 207 142 189 166 165 c 2
 188 144 l 2
 194 138 200 132 206 125 c 0
 223 107 246 75 246 75 c 1
 175 4 l 1
 154 25 l 1
 154 25 131 57 114 75 c 0
 111 78 109 80 106 83 c 0
 53 134 15 154 15 154 c 1
 -6 175 l 1
 65 246 l 2
 65 246 80 250 126 288 c 0
 134 300 l 1
 205 371 l 1
405 371 m 1
 426 350 l 1
 426 350 412 326 393 307 c 2
 323 236 l 1
 322 236 l 2
 321 235 322 235 321 234 c 0
 319 232 317 231 315 229 c 0
 312 226 305 221 304 220 c 1
 321 207 342 189 366 165 c 2
 388 144 l 2
 394 138 400 132 406 125 c 0
 423 107 446 75 446 75 c 1
 375 4 l 1
 354 25 l 1
 354 25 331 57 314 75 c 0
 311 78 309 80 306 83 c 0
 253 134 215 154 215 154 c 1
 194 175 l 1
 265 246 l 2
 265 246 280 250 326 288 c 0
 334 300 l 1
 405 371 l 1
EndSplineSet
EndChar
StartChar: logicalnot
Encoding: 172 172 225
Width: 480
Flags: W
HStem: 354 92<105 354>
VStem: 354 92<225 354>
LayerCount: 2
Back
SplineSet
80 400 m 25
 400 400 l 25
 400 200 l 1053
EndSplineSet
Fore
SplineSet
34 375 m 1
 105 446 l 1
 425 446 l 1
 446 425 l 1
 446 225 l 1
 375 154 l 1
 354 175 l 1
 354 354 l 1
 55 354 l 1
 34 375 l 1
EndSplineSet
EndChar
StartChar: registered
Encoding: 174 174 222
Width: 560
Flags: W
HStem: -34 68<211.092 369.995> 431 68<170.156 219.382> 566 68<190.005 348.908>
VStem: 6 68<191.548 430.062> 214 14<195 425> 242 68<193 283 307 407> 340 68<185 291> 486 68<169.938 408.487>
LayerCount: 2
Back
SplineSet
154 438 m 5
 154 438 169 465 187 465 c 7
 203 465 211 451 221 451 c 7
 233 451 242 465 243 465 c 1029
221 438 m 1
 221 176 l 1025
330 314 m 5
 397 396 l 5
 298 465 l 5
 276 438 l 5
 276 162 l 5
 254 135 l 5
 254 135 241 162 198 162 c 7
 168 162 154 135 154 135 c 1037
353 341 m 5
 374 314 l 5
 374 162 l 5
 397 135 l 13
 418 162 l 1053
40 350 m 4
 40 475 140 600 240 600 c 4
 440 600 520 500 520 250 c 4
 520 125 420 0 320 0 c 4
 120 0 40 100 40 350 c 4
EndSplineSet
Fore
SplineSet
6 327 m 0
 6 400 40 473 88 521 c 2
 145 577 l 2
 179 611 221 634 263 634 c 0
 353 634 419 613 464 568 c 2
 474 558 l 2
 529 503 554 410 554 273 c 0
 554 200 520 127 472 79 c 2
 415 23 l 2
 381 -11 339 -34 297 -34 c 0
 207 -34 141 -13 96 32 c 2
 86 42 l 2
 31 97 6 190 6 327 c 0
310 307 m 1
 362 371 l 1
 310 407 l 1
 310 307 l 1
310 283 m 1
 310 185 l 1
 288 158 l 1
 231 101 l 1
 220 112 l 1
 220 112 220 114 218 116 c 0
 209 123 196 128 175 128 c 0
 166 128 157 125 152 122 c 2
 136 107 l 1
 140 102 144 98 148 94 c 0
 193 53 257 34 343 34 c 0
 373 34 404 46 431 65 c 1
 464 110 486 169 486 227 c 0
 486 360 463 450 412 506 c 1
 367 547 303 566 217 566 c 0
 187 566 156 554 129 535 c 1
 96 490 74 431 74 373 c 0
 74 260 90 177 127 121 c 1
 128 122 128 123 129 124 c 2
 130 124 l 2
 186 181 l 2
 192 187 202 193 214 195 c 1
 214 425 l 2
 210 421 204 417 198 417 c 0
 188 417 180 431 164 431 c 0
 161 431 160 431 157 430 c 2
 131 404 l 1
 120 415 l 1
 120 415 125 423 133 431 c 2
 190 488 l 2
 196 494 202 499 210 499 c 0
 226 499 234 485 244 485 c 0
 249 485 254 487 257 490 c 2
 265 498 l 2
 266 498 l 0
 266 499 l 2
 277 488 l 1
 275 486 l 2
 274 485 273 484 272 483 c 2
 228 440 l 1
 228 195 l 1
 233 195 238 194 242 193 c 1
 242 415 l 1
 264 442 l 1
 321 499 l 1
 420 430 l 1
 431 419 l 1
 386 364 l 1
 387 364 l 1
 408 337 l 1
 408 185 l 1
 418 173 l 1
 441 196 l 1
 452 185 l 1
 431 158 l 1
 374 101 l 1
 363 112 l 1
 340 139 l 1
 340 291 l 1
 330 304 l 1
 310 283 l 1
EndSplineSet
EndChar
StartChar: multiply
Encoding: 215 215 223
Width: 480
Flags: W
HStem: 526 20G<85 125 405 445>
LayerCount: 2
Back
SplineSet
400 500 m 25
 80 100 l 1049
80 500 m 25
 400 100 l 1049
EndSplineSet
Fore
SplineSet
105 546 m 1
 126 525 l 1
 260 357 l 1
 354 475 l 1
 425 546 l 1
 446 525 l 1
 286 325 l 1
 446 125 l 1
 375 54 l 1
 354 75 l 1
 220 243 l 1
 126 125 l 1
 55 54 l 1
 34 75 l 1
 194 275 l 1
 34 475 l 1
 105 546 l 1
EndSplineSet
EndChar
StartChar: lslash
Encoding: 322 322 291
Width: 160
Flags: W
HStem: -46 21G<55 95> 651 20G<65 105>
VStem: 34 92<47 243 285 335 377 580>
LayerCount: 2
Back
SplineSet
140 370 m 25
 20 250 l 1049
60 40 m 25
 100 0 l 25
 140 40 l 1049
60 625 m 25
 100 585 l 1049
80 605 m 9
 80 20 l 1049
EndSplineSet
Fore
SplineSet
14 600 m 1
 85 671 l 1
 105 651 l 1
 126 630 l 1
 146 610 l 1
 126 590 l 1
 126 377 l 1
 165 416 l 1
 186 395 l 1
 126 335 l 1
 126 47 l 1
 165 86 l 1
 186 65 l 1
 75 -46 l 1
 55 -26 l 1
 14 15 l 1
 34 35 l 1
 34 243 l 1
 -5 204 l 1
 -26 225 l 1
 34 285 l 1
 34 580 l 1
 14 600 l 1
EndSplineSet
EndChar
StartChar: hv
Encoding: 405 405 514
Width: 480
Flags: W
HStem: -46 21G<55 95 275 315> 426 170G<185 225 408.282 449> 426 20G<185 225> 651 20G<65 105>
VStem: 34 92<45 325 367 580> 194 92<105 342.1> 314 92<430.36 498.189> 354 92<105 385.86>
AnchorPoint: "blwmark" 240 0 basechar 0
AnchorPoint: "abvmark" 240 700 basechar 0
LayerCount: 2
Back
SplineSet
404 550 m 17
 404 550 360 507 360 472 c 16
 360 423 400 380 400 380 c 9
 400 80 l 1
 320 0 l 25
 240 80 l 1
 240 340 l 25
 180 400 l 1
 80 300 l 1049
60 40 m 25
 100 0 l 1049
60 625 m 25
 100 585 l 1049
80 605 m 9
 80 20 l 1049
EndSplineSet
Fore
SplineSet
14 600 m 1xdd
 85 671 l 1
 105 651 l 1
 126 630 l 1
 146 610 l 1
 126 590 l 1
 126 367 l 1
 205 446 l 1
 286 365 l 1
 286 105 l 1
 345 46 l 1
 354 55 l 1
 354 355 l 1xbd
 354 355 314 398 314 447 c 0
 314 480 353 520 358 525 c 0
 428 596 l 2
 429 596 l 1
 450 575 l 1
 443 568 406 529 406 497 c 0xde
 406 448 446 405 446 405 c 1
 446 105 l 1
 295 -46 l 1
 194 55 l 1
 194 315 l 2
 194 335 166 343 155 354 c 1
 126 325 l 1
 126 45 l 1
 146 25 l 1
 75 -46 l 1
 55 -26 l 1
 14 15 l 1
 34 35 l 1
 34 275 l 1
 34 580 l 1
 14 600 l 1xdd
EndSplineSet
EndChar
StartChar: wynn
Encoding: 447 447 877
Width: 320
Flags: W
HStem: -196 21G<35 75> 426 20G<65 105 165 205> 426 20G<65 105 165 205>
VStem: 34 92<-125 -77 -35 15 57 345> 194 92<175 329.311>
AnchorPoint: "abvmark" 160 500 basechar 0
LayerCount: 2
Back
SplineSet
40 -50 m 9
 240 150 l 5
 240 320 l 25
 160 400 l 1
 80 320 l 1049
60 400 m 25
 100 360 l 1049
80 380 m 1
 80 -150 l 1025
EndSplineSet
Fore
SplineSet
14 375 m 1xd8
 85 446 l 1
 105 426 l 1
 126 405 l 1
 135 396 l 1
 185 446 l 1
 286 345 l 1
 286 175 l 1
 126 15 l 1
 126 -125 l 1
 55 -196 l 1
 34 -175 l 1
 34 -77 l 1
 15 -96 l 1
 -6 -75 l 1
 34 -35 l 1
 34 295 l 1
 34 355 l 1
 14 375 l 1xd8
126 345 m 1
 126 57 l 1
 194 125 l 1
 194 295 l 2
 194 327 152 337 135 354 c 1
 126 345 l 1
EndSplineSet
EndChar
StartChar: dotlessj
Encoding: 567 567 98
Width: 160
Flags: W
HStem: -196 21G<-5 35> 426 20G<65 105> 426 20G<65 105>
VStem: 34 92<-85 353>
AnchorPoint: "abvmark" 80 500 basechar 0
LayerCount: 2
Back
SplineSet
100 360 m 25
 60 400 l 25
 20 360 l 1049
80 380 m 1
 80 -110 l 9
 40 -150 l 1049
EndSplineSet
Fore
SplineSet
126 405 m 1xd0
 146 385 l 1
 126 365 l 1
 126 -85 l 1
 15 -196 l 1
 -6 -175 l 1
 34 -135 l 1
 34 353 l 1
 -5 314 l 1
 -26 335 l 1
 85 446 l 1
 105 426 l 1
 126 405 l 1xd0
EndSplineSet
EndChar
StartChar: circumflex
Encoding: 710 710 100
Width: 320
Flags: W
HStem: 479 267
VStem: 114 92<634.392 675>
LayerCount: 2
Back
SplineSet
240 525 m 25
 240 525 160 600 160 700 c 5
 160 550 80 525 80 525 c 1025
EndSplineSet
Fore
SplineSet
147 561 m 1
 86 500 l 2
 70 484 55 479 55 479 c 1
 34 500 l 1
 90 556 l 2
 92 560 94 564 96 568 c 0
 107 593 114 628 114 675 c 1
 185 746 l 1
 206 725 l 1
 206 702 210 680 217 660 c 0
 235 606 270 567 282 554 c 2
 286 550 l 1
 215 479 l 1
 215 479 214 480 213 481 c 2
 192 502 l 2
 186 508 165 530 147 561 c 1
EndSplineSet
EndChar
StartChar: ring
Encoding: 730 730 184
Width: 320
Flags: W
HStem: 479 292<109.263 210.737>
VStem: 34 92<593.3 677.429> 194 92<572.571 656.7>
LayerCount: 2
Back
SplineSet
80 650 m 4
 80 710 92 725 140 725 c 4
 200 725 240 675 240 600 c 4
 240 540 228 525 180 525 c 4
 120 525 80 575 80 650 c 4
EndSplineSet
Fore
SplineSet
34 625 m 0
 34 658 37 677 48 688 c 2
 119 759 l 2
 128 768 143 771 165 771 c 0
 191 771 213 762 230 745 c 2
 251 723 l 2
 273 701 286 667 286 625 c 0
 286 592 283 573 272 562 c 2
 201 491 l 2
 192 482 177 479 155 479 c 0
 129 479 107 488 90 505 c 2
 69 527 l 2
 47 549 34 583 34 625 c 0
126 675 m 0
 126 639 135 610 151 588 c 1
 163 579 178 574 194 572 c 1
 194 573 194 574 194 575 c 0
 194 611 185 640 169 662 c 1
 157 671 142 676 126 678 c 1
 126 677 126 676 126 675 c 0
EndSplineSet
EndChar
StartChar: ringbelow
Encoding: 755 755 886
Width: 320
Flags: W
HStem: -321 292<109.263 210.737>
VStem: 34 92<-206.7 -122.571> 194 92<-227.429 -143.3>
LayerCount: 2
Back
SplineSet
80 -150 m 4
 80 -90 92 -75 140 -75 c 4
 200 -75 240 -125 240 -200 c 4
 240 -260 228 -275 180 -275 c 4
 120 -275 80 -225 80 -150 c 4
EndSplineSet
Fore
SplineSet
34 -175 m 0
 34 -142 37 -123 48 -112 c 2
 119 -41 l 2
 128 -32 143 -29 165 -29 c 0
 191 -29 213 -38 230 -55 c 2
 251 -77 l 2
 273 -99 286 -133 286 -175 c 0
 286 -208 283 -227 272 -238 c 2
 201 -309 l 2
 192 -318 177 -321 155 -321 c 0
 129 -321 107 -312 90 -295 c 2
 69 -273 l 2
 47 -251 34 -217 34 -175 c 0
126 -125 m 0
 126 -161 135 -190 151 -212 c 1
 163 -221 178 -226 194 -228 c 1
 194 -227 194 -226 194 -225 c 0
 194 -189 185 -160 169 -138 c 1
 157 -129 142 -124 126 -122 c 1
 126 -123 126 -124 126 -125 c 0
EndSplineSet
EndChar
StartChar: horizontalbar
Encoding: 8213 8213 909
Width: 560
Flags: W
HStem: 154 92<65 495>
LayerCount: 2
Back
SplineSet
40 200 m 25
 520 200 l 1049
EndSplineSet
Fore
SplineSet
-6 175 m 1
 65 246 l 1
 545 246 l 1
 566 225 l 1
 495 154 l 1
 15 154 l 1
 -6 175 l 1
EndSplineSet
EndChar
StartChar: quoteright
Encoding: 8217 8217 255
Width: 240
Flags: W
HStem: 404 232
VStem: 34 152
LayerCount: 2
Back
SplineSet
100 590 m 29
 140 550 l 1
 140 510 l 29
 80 450 l 1053
EndSplineSet
Fore
SplineSet
54 565 m 1
 125 636 l 1
 186 575 l 1
 186 535 l 1
 55 404 l 1
 34 425 l 1
 94 485 l 1
 94 525 l 1
 54 565 l 1
EndSplineSet
EndChar
StartChar: quotesinglbase
Encoding: 8218 8218 256
Width: 240
VWidth: 450
Flags: W
HStem: -146 232
VStem: 34 152
LayerCount: 2
Back
SplineSet
100 40 m 29
 140 0 l 1
 140 -40 l 29
 80 -100 l 1053
EndSplineSet
Fore
SplineSet
54 15 m 1
 125 86 l 1
 186 25 l 1
 186 -15 l 1
 55 -146 l 1
 34 -125 l 1
 94 -65 l 1
 94 -25 l 1
 54 15 l 1
EndSplineSet
EndChar
StartChar: quotedblleft
Encoding: 8220 8220 251
Width: 400
Flags: W
HStem: 389 232
VStem: 54 312
LayerCount: 2
Back
SplineSet
140 435 m 29
 100 475 l 1
 100 515 l 29
 160 575 l 1053
300 435 m 29
 260 475 l 5
 260 515 l 29
 320 575 l 1053
EndSplineSet
Fore
SplineSet
346 460 m 1
 275 389 l 1
 214 450 l 1
 214 490 l 1
 345 621 l 1
 366 600 l 1
 306 540 l 1
 306 500 l 1
 346 460 l 1
186 460 m 1
 115 389 l 1
 54 450 l 1
 54 490 l 1
 185 621 l 1
 206 600 l 1
 146 540 l 1
 146 500 l 1
 186 460 l 1
EndSplineSet
EndChar
StartChar: fraction
Encoding: 8260 8260 217
Width: 560
Flags: W
HStem: -46 21G<35 75>
LayerCount: 2
Back
SplineSet
80 0 m 29
 480 700 l 1053
EndSplineSet
Fore
SplineSet
55 -46 m 1
 34 -25 l 1
 434 675 l 1
 505 746 l 1
 526 725 l 1
 126 25 l 1
 55 -46 l 1
EndSplineSet
EndChar
StartChar: lozengedot
Encoding: 8280 8280 899
Width: 480
Flags: W
HStem: -46 21G<215 255>
LayerCount: 2
Back
SplineSet
340 195 m 25
 380 155 l 1049
220 40 m 25
 260 0 l 1049
220 350 m 25
 260 310 l 1049
100 195 m 25
 140 155 l 1049
EndSplineSet
Fore
SplineSet
54 170 m 1
 125 241 l 1
 186 180 l 1
 115 109 l 1
 54 170 l 1
174 325 m 1
 245 396 l 1
 306 335 l 1
 235 264 l 1
 174 325 l 1
174 15 m 1
 245 86 l 1
 306 25 l 1
 235 -46 l 1
 174 15 l 1
294 170 m 1
 365 241 l 1
 426 180 l 1
 355 109 l 1
 294 170 l 1
EndSplineSet
EndChar
StartChar: bracketangleleft
Encoding: 9296 9296 930
Width: 320
Flags: W
HStem: -196 21G<235 275>
VStem: -6 332
LayerCount: 2
Back
SplineSet
260 675 m 17
 260 675 196 554 180 525 c 0
 144 459 40 250 40 250 c 1
 40 250 163 60 200 0 c 0
 214 -22 280 -150 280 -150 c 1033
EndSplineSet
Fore
SplineSet
285 721 m 1
 306 700 l 1
 306 700 242 579 226 550 c 0
 190 484 86 275 86 275 c 1
 86 275 209 85 246 25 c 0
 260 3 326 -125 326 -125 c 1
 255 -196 l 1
 234 -175 l 1
 234 -175 168 -47 154 -25 c 0
 117 35 -6 225 -6 225 c 1
 -6 225 98 434 134 500 c 0
 150 529 214 650 214 650 c 1
 285 721 l 1
EndSplineSet
EndChar
StartChar: bracketangleright
Encoding: 9297 9297 931
Width: 320
Flags: W
HStem: -196 21G<-5 35>
VStem: -6 332
LayerCount: 2
Back
SplineSet
60 675 m 21
 60 675 124 554 140 525 c 4
 176 459 280 250 280 250 c 5
 280 250 157 60 120 0 c 4
 106 -22 40 -150 40 -150 c 1037
EndSplineSet
Fore
SplineSet
85 721 m 1
 106 700 l 1
 106 700 170 579 186 550 c 0
 222 484 326 275 326 275 c 1
 326 275 203 85 166 25 c 0
 152 3 86 -125 86 -125 c 1
 15 -196 l 1
 -6 -175 l 1
 -6 -175 60 -47 74 -25 c 0
 111 35 234 225 234 225 c 1
 234 225 130 434 94 500 c 0
 78 529 14 650 14 650 c 1
 85 721 l 1
EndSplineSet
EndChar
StartChar: FleuronRight
Encoding: 10087 10087 956
Width: 640
Flags: W
HStem: -46 21G<95 135> 496 30G<125 165 336.5 356.5>
VStem: 74 92<50 148.75> 82 92<136.5 170 292 365> 94 92<338.222 450>
LayerCount: 2
Back
SplineSet
40 150 m 25
 60 200 l 25
 260 300 l 1049
140 0 m 25
 120 25 l 25
 140 475 l 25
 120 500 l 1049
600 350 m 1
 600 350 498 25 360 25 c 27
 299 25 240 74 240 150 c 27
 240 212 340 250 340 250 c 1
 340 250 240 288 240 350 c 27
 240 405 281 450 320 450 c 3
 378 450 405 386 440 325 c 8
 463 285 461 225 500 225 c 3
 534 225 580 325 580 325 c 1025
EndSplineSet
Fore
SplineSet
552 318 m 2xc8
 554 323 554 325 554 325 c 1
 625 396 l 1
 646 375 l 1
 646 375 639 352 626 319 c 0
 601 256 556 154 497 95 c 2
 426 25 l 2
 398 -3 368 -21 335 -21 c 0
 304 -21 273 -9 251 14 c 2
 230 35 l 2
 208 57 194 88 194 125 c 0
 194 146 205 164 220 179 c 2
 269 228 l 1
 259 235 250 242 241 251 c 2
 236 255 l 1
 235 254 l 1
 174 223 l 1xd0
 166 50 l 1xe0
 186 25 l 1
 115 -46 l 1
 94 -25 l 1xc8
 74 0 l 1xe0
 82 170 l 1xd0
 15 104 l 1
 -6 125 l 1
 14 175 l 1
 85 246 l 1
 94 450 l 1xc8
 74 475 l 1
 145 546 l 1
 166 525 l 1xe0
 186 500 l 1
 177 292 l 1
 198 303 l 1
 195 310 194 317 194 325 c 0
 194 356 207 384 225 402 c 2
 296 473 l 2
 297 474 l 2
 311 488 328 496 345 496 c 0
 368 496 385 487 401 471 c 2
 422 449 l 2
 446 425 465 387 486 350 c 0
 500 326 505 292 515 272 c 0
 517 272 518 271 519 271 c 0
 528 288 534 300 534 300 c 2
 552 318 l 2xc8
EndSplineSet
EndChar
StartChar: bracketwhiteleft
Encoding: 10214 10214 918
Width: 320
Flags: W
HStem: -196 92<126 165 195 255> 654 92<126 165 195 255>
VStem: 34 92<-104 654> 165 30<-104 654>
LayerCount: 2
Back
SplineSet
180 650 m 25
 180 -100 l 1049
280 700 m 25
 80 700 l 25
 80 -150 l 25
 280 -150 l 1033
EndSplineSet
Fore
SplineSet
326 725 m 1
 255 654 l 1
 195 654 l 1
 195 -104 l 1
 305 -104 l 1
 326 -125 l 1
 255 -196 l 1
 55 -196 l 1
 34 -175 l 1
 34 675 l 1
 105 746 l 1
 305 746 l 1
 326 725 l 1
165 654 m 1
 126 654 l 1
 126 -104 l 1
 165 -104 l 1
 165 654 l 1
EndSplineSet
EndChar
StartChar: ruslst
Encoding: 11789 11789 903
Width: 240
Flags: W
VStem: -6 252
LayerCount: 2
Back
SplineSet
40 450 m 25
 200 700 l 1049
EndSplineSet
Fore
SplineSet
15 404 m 1
 -6 425 l 1
 154 675 l 1
 225 746 l 1
 246 725 l 1
 86 475 l 1
 15 404 l 1
EndSplineSet
EndChar
StartChar: rlslst
Encoding: 11804 11804 904
Width: 240
Flags: W
HStem: -196 21G<155 195>
VStem: -6 252
LayerCount: 2
Back
SplineSet
40 100 m 25
 200 -150 l 1049
EndSplineSet
Fore
SplineSet
65 146 m 1
 86 125 l 1
 246 -125 l 1
 175 -196 l 1
 154 -175 l 1
 -6 75 l 1
 65 146 l 1
EndSplineSet
EndChar
StartChar: llslst
Encoding: 11805 11805 905
Width: 240
Flags: W
HStem: -196 21G<-5 35>
VStem: -6 252
LayerCount: 2
Back
SplineSet
40 -150 m 25
 200 100 l 1049
EndSplineSet
Fore
SplineSet
15 -196 m 1
 -6 -175 l 1
 154 75 l 1
 225 146 l 1
 246 125 l 1
 86 -125 l 1
 15 -196 l 1
EndSplineSet
EndChar
StartChar: bracketbottomright
Encoding: 11813 11813 925
Width: 240
Flags: W
HStem: -196 92<65 114>
VStem: 114 92<-104 275>
LayerCount: 2
Back
SplineSet
160 300 m 1
 160 -150 l 9
 40 -150 l 1033
EndSplineSet
Fore
SplineSet
185 346 m 1
 206 325 l 1
 206 -125 l 1
 135 -196 l 1
 15 -196 l 1
 -6 -175 l 1
 65 -104 l 1
 114 -104 l 1
 114 275 l 1
 185 346 l 1
EndSplineSet
EndChar
StartChar: pflourish
Encoding: 42835 42835 869
Width: 400
Flags: W
HStem: -196 21G<-25 2 115 155> -46 21G<206 235> 426 20G<145 185 245 285> 426 20G<145 185 245 285>
VStem: 14 92<-102.785 36.3451> 114 92<-125 -37 140 345> 274 92<105 295>
AnchorPoint: "abvmark" 240 500 basechar 0
LayerCount: 2
Back
SplineSet
160 320 m 25
 240 400 l 1
 320 320 l 25
 320 80 l 1
 240 0 l 1
 240 0 186 100 20 100 c 1
 20 100 60 44 60 0 c 3
 60 -132 20 -150 20 -150 c 1033
140 400 m 25
 180 360 l 1049
160 380 m 1
 160 -150 l 1025
EndSplineSet
Fore
SplineSet
206 345 m 1xce
 206 104 l 1
 221 94 232 84 241 75 c 2
 263 54 l 2
 265 52 266 51 268 49 c 2
 274 55 l 1
 274 295 l 1
 215 354 l 1
 206 345 l 1xce
94 375 m 1
 165 446 l 1
 185 426 l 1
 206 405 l 1
 215 396 l 1
 265 446 l 1xee
 366 345 l 1
 366 105 l 1
 215 -46 l 1
 206 -37 l 1
 206 -125 l 1
 135 -196 l 1
 114 -175 l 1
 114 33 l 2
 111 34 108 36 105 37 c 1
 106 33 106 29 106 25 c 0
 106 -74 83 -109 72 -120 c 2
 2 -191 l 2
 -2 -195 -5 -196 -5 -196 c 1
 -26 -175 l 1
 -13 -162 l 2
 -1 -145 14 -108 14 -25 c 0
 14 19 -26 75 -26 75 c 1
 45 146 l 1
 71 146 93 144 114 140 c 1
 114 295 l 1
 114 355 l 1
 94 375 l 1
EndSplineSet
EndChar
StartChar: y_y
Encoding: 42849 42849 834
Width: 480
Flags: W
HStem: -246 92<254.174 353.094> -196 92<73 184.261> -46 21G<115 155 275 315> 426 20G<65 105 225 265 385 425> 426 20G<65 105 225 265 385 425>
VStem: 34 92<105 355> 194 92<105 355> 354 92<-152.356 13 55 355>
CounterMasks: 1 07
AnchorPoint: "abvmark" 240 500 basechar 0
LayerCount: 2
Back
SplineSet
260 360 m 25
 220 400 l 1049
420 360 m 25
 380 400 l 1049
40 -200 m 17
 40 -200 70 -150 100 -150 c 8
 196 -150 244 -200 340 -200 c 24
 370 -200 400 -150 400 -150 c 1
 400 380 l 1025
400 80 m 9
 320 0 l 25
 240 80 l 1
 240 380 l 1049
100 360 m 25
 60 400 l 1049
240 80 m 9
 160 0 l 25
 80 80 l 1
 80 380 l 1049
EndSplineSet
Fore
SplineSet
15 -246 m 1xa7
 -6 -225 l 1
 -6 -225 4 -209 18 -195 c 2
 88 -124 l 2
 89 -123 l 0
 100 -112 112 -104 125 -104 c 0x67
 217 -104 266 -151 354 -154 c 1
 354 13 l 1
 295 -46 l 1
 215 34 l 1
 135 -46 l 1
 34 55 l 1
 34 355 l 1
 14 375 l 1
 85 446 l 1
 105 426 l 1
 126 405 l 1
 146 385 l 1
 126 365 l 1
 126 105 l 1
 185 46 l 1
 194 55 l 1
 194 355 l 1
 174 375 l 1
 245 446 l 1
 265 426 l 1
 286 405 l 1
 306 385 l 1
 286 365 l 1
 286 105 l 1
 345 46 l 1
 354 55 l 1
 354 355 l 1
 334 375 l 1
 405 446 l 1
 425 426 l 1
 446 405 l 1
 466 385 l 1
 446 365 l 1
 446 105 l 1
 446 -125 l 1
 446 -125 436 -141 422 -155 c 2
 352 -226 l 2
 341 -237 328 -246 315 -246 c 0xb7
 219 -246 171 -196 75 -196 c 0x67
 71 -196 67 -197 62 -199 c 2
 15 -246 l 1xa7
EndSplineSet
LCarets2: 1 240 
Ligature2: "Historic ligatures-1" y y
EndChar
StartChar: thornbarbelow
Encoding: 42855 42855 875
Width: 320
Flags: W
HStem: -196 21G<35 75> 426 20G<165 205> 426 20G<165 205> 651 20G<65 105>
VStem: 34 92<-125 -121 -29 23 146 345 387 580> 194 92<106 295>
AnchorPoint: "abvmark" 160 700 basechar 0
LayerCount: 2
Back
SplineSet
160 -75 m 25
 20 -75 l 1049
80 320 m 25
 160 400 l 1
 240 320 l 1
 240 40 l 1
 200 0 l 1
 200 0 165 100 100 100 c 0
 77 100 40 50 40 50 c 1025
60 625 m 25
 100 585 l 1049
80 605 m 1
 80 -150 l 1025
EndSplineSet
Fore
SplineSet
14 600 m 1xdc
 85 671 l 1
 105 651 l 1
 126 630 l 1
 146 610 l 1
 126 590 l 1
 126 387 l 1
 185 446 l 1
 286 345 l 1
 286 65 l 1
 188 -33 l 1
 206 -50 l 1
 135 -121 l 1
 126 -121 l 1
 126 -125 l 1
 55 -196 l 1
 34 -175 l 1
 34 -121 l 1
 -5 -121 l 1
 -26 -100 l 1
 34 -40 l 1
 34 23 l 1
 15 4 l 1
 -6 25 l 1
 -6 25 4 39 17 52 c 2
 34 69 l 1
 34 295 l 1
 34 580 l 1
 14 600 l 1xdc
126 345 m 1
 126 146 l 1
 147 146 164 134 179 120 c 2
 194 106 l 1
 194 295 l 1
 135 354 l 1
 126 345 l 1
126 29 m 1
 126 -29 l 1
 158 -29 l 1
 154 -25 l 1
 154 -25 144 3 126 29 c 1
EndSplineSet
EndChar
StartChar: etfin
Encoding: 42859 42859 959
Width: 280
Flags: W
HStem: 426 20G<105 145> 426 20G<105 145>
VStem: 154 92<-15 68>
LayerCount: 2
Back
SplineSet
40 340 m 25
 100 400 l 1
 200 300 l 1
 80 180 l 1
 200 100 l 1
 200 -40 l 1
 0 -200 l 1025
EndSplineSet
Fore
SplineSet
15 294 m 1xa0
 -6 315 l 1
 125 446 l 1
 246 325 l 1
 130 209 l 1
 225 146 l 1
 246 125 l 1
 246 -15 l 1
 175 -86 l 1
 -25 -246 l 1
 -46 -225 l 1
 25 -154 l 1
 154 -51 l 1
 154 68 l 1
 55 134 l 1
 34 155 l 1
 154 275 l 1
 75 354 l 1
 15 294 l 1xa0
EndSplineSet
EndChar
StartChar: dum
Encoding: 42865 42865 448
Width: 480
Flags: W
HStem: -196 21G<195 235> -46 21G<115 155 195 235.513 352.5 364> 426 20G<165 193> 426 20G<165 193> 504 92<129.754 169.483>
VStem: 34 92<70.6892 295> 194 92<67 188 212 295> 314 92<77 167>
AnchorPoint: "abvmark" 200 700 basechar 0
LayerCount: 2
Back
SplineSet
320 225 m 1
 360 200 l 1
 360 200 360 139 360 100 c 27
 360 3 240 -150 240 -150 c 1025
240 320 m 1
 160 400 l 25
 80 320 l 1
 80 80 l 25
 160 0 l 17
 240 80 l 1025
113 650 m 25
 100 630 80 623 80 600 c 27
 80 563 125 550 160 550 c 0
 195 550 240 500 240 450 c 18
 240 0 l 9
 280 40 l 17
 280 40 305 0 380 0 c 3
 425 0 440 50 440 50 c 1033
EndSplineSet
Fore
SplineSet
138 696 m 1xef
 159 675 l 1
 155 669 151 664 146 659 c 2
 139 653 l 2
 131 645 126 637 126 625 c 0
 126 619 127 613 129 608 c 0
 145 599 167 596 185 596 c 0
 200 596 217 586 231 572 c 2
 252 551 l 2
 271 532 286 504 286 475 c 2
 286 345 l 1
 286 212 l 1
 345 271 l 1
 385 246 l 1
 406 225 l 1
 406 125 l 2
 406 101 399 74 388 47 c 1
 393 47 399 46 405 46 c 0
 409 46 413 46 416 47 c 2
 465 96 l 1
 486 75 l 2
 486 75 480 57 466 42 c 2
 395 -29 l 2
 386 -38 373 -46 355 -46 c 0
 350 -46 346 -45 341 -45 c 1
 313 -91 286 -125 286 -125 c 2
 215 -196 l 1
 194 -175 l 1
 194 -175 248 -105 284 -30 c 1
 274 -25 267 -19 262 -14 c 0
 255 -7 l 1
 215 -46 l 1
 194 -25 l 1
 194 13 l 1
 135 -46 l 1
 34 55 l 1
 34 295 l 1
 185 446 l 1
 193 438 l 1
 190 457 181 475 170 490 c 0
 159 498 146 504 135 504 c 0
 111 504 83 510 67 525 c 2
 67 526 l 0
 46 547 l 2
 39 554 34 563 34 575 c 0
 34 588 41 596 49 605 c 0
 50 605 l 2
 56 612 l 2
 59 615 64 620 67 625 c 2
 138 696 l 1xef
286 105 m 1
 286 67 l 1
 305 86 l 1
 314 77 l 1
 314 167 l 1
 295 179 l 1
 286 188 l 1
 286 105 l 1
194 55 m 1
 194 295 l 1
 135 354 l 1
 126 345 l 1
 126 105 l 2
 126 73 168 63 185 46 c 1
 194 55 l 1
EndSplineSet
EndChar
StartChar: g_r
Encoding: 60112 60112 502
Width: 400
Flags: W
HStem: -196 92<73 131.5> -46 21G<115 155> 426 20G<165 205 245 285 325 365> 426 20G<165 205 245 285 325 365>
VStem: 34 92<70.6892 295> 194 92<-151.691 13 55 330>
LayerCount: 2
Back
SplineSet
360 360 m 25
 320 400 l 25
 240 320 l 1049
40 -200 m 17
 40 -200 70 -150 100 -150 c 8
 137 -150 143 -200 180 -200 c 24
 210 -200 240 -150 240 -150 c 9
 240 400 l 1
 240 400 220 368 200 368 c 24
 180 368 160 400 160 400 c 1
 80 320 l 25
 80 80 l 25
 160 0 l 25
 240 80 l 1041
EndSplineSet
Fore
SplineSet
194 330 m 1xcc
 188 325 182 322 175 322 c 0
 166 322 157 329 150 336 c 2
 133 352 l 1
 126 345 l 1
 126 105 l 2
 126 73 168 63 185 46 c 1
 194 55 l 1
 194 295 l 1
 194 330 l 1xcc
194 13 m 1
 135 -46 l 1
 34 55 l 1
 34 295 l 1
 185 446 l 1
 206 425 l 1
 206 425 208 422 210 419 c 0
 214 416 220 414 225 414 c 0
 229 414 232 415 236 417 c 2
 265 446 l 1
 286 425 l 1
 286 387 l 1
 345 446 l 1xec
 406 385 l 1
 335 314 l 1
 295 354 l 1
 286 345 l 1
 286 -125 l 1
 286 -125 276 -141 262 -155 c 2
 192 -226 l 2
 181 -237 168 -246 155 -246 c 0
 142 -246 133 -240 125 -232 c 2
 104 -211 l 2
 101 -208 98 -206 96 -203 c 0
 90 -199 83 -196 75 -196 c 0
 71 -196 67 -197 62 -199 c 2
 15 -246 l 1
 -6 -225 l 1
 -6 -225 4 -209 18 -195 c 2
 88 -124 l 2
 89 -123 l 0
 100 -112 112 -104 125 -104 c 0
 138 -104 147 -110 155 -118 c 2
 176 -139 l 2
 177 -140 l 0
 179 -142 182 -145 184 -147 c 0
 187 -149 191 -151 194 -152 c 2
 194 13 l 1
EndSplineSet
LCarets2: 1 240 
Ligature2: "Historic ligatures-1" g r
EndChar
StartChar: h_longs
Encoding: 60333 60333 515
Width: 340
Flags: W
HStem: -196 92<-67 -8.5> -46 21G<235 275> 426 20G<205 245> 426 20G<205 245> 564 92<206 272.5>
VStem: 54 92<-151.691 325 367 545> 214 92<45 342.1>
LayerCount: 2
Back
SplineSet
240 40 m 25
 280 0 l 1049
260 20 m 25
 260 340 l 25
 200 400 l 1
 100 300 l 1049
-100 -200 m 17
 -100 -200 -70 -150 -40 -150 c 8
 -3 -150 3 -200 40 -200 c 24
 70 -200 100 -150 100 -150 c 1
 100 570 l 1
 180 650 l 17
 180 650 212 610 240 610 c 24
 268 610 300 650 301 650 c 1033
EndSplineSet
Fore
SplineSet
-125 -246 m 1xee
 -146 -225 l 1
 -146 -225 -136 -209 -122 -195 c 2
 -52 -124 l 2
 -51 -123 l 0
 -40 -112 -28 -104 -15 -104 c 0
 -2 -104 7 -110 15 -118 c 2
 36 -139 l 2
 37 -140 l 0
 39 -142 42 -145 44 -147 c 0
 47 -149 51 -151 54 -152 c 2
 54 275 l 1
 54 545 l 1
 205 696 l 1
 226 675 l 1
 227 674 l 0
 238 664 252 656 265 656 c 0
 280 656 297 668 308 678 c 2
 325 696 l 2
 326 696 l 2
 347 675 l 1
 345 672 l 2
 343 670 341 668 338 665 c 2
 337 664 l 2
 266 594 l 2
 254 582 234 564 215 564 c 0
 197 564 179 580 167 592 c 0
 155 604 l 1
 146 595 l 1
 146 367 l 1
 225 446 l 1
 306 365 l 1
 306 45 l 1
 326 25 l 1
 255 -46 l 1
 235 -26 l 1
 214 -5 l 1
 194 15 l 1
 214 35 l 1
 214 315 l 2
 214 335 186 343 175 354 c 1
 146 325 l 1
 146 -125 l 1
 146 -125 136 -141 122 -155 c 2
 52 -226 l 2
 41 -237 28 -246 15 -246 c 0
 2 -246 -7 -240 -15 -232 c 2
 -36 -211 l 2
 -39 -208 -42 -206 -44 -203 c 0
 -50 -199 -57 -196 -65 -196 c 0
 -69 -196 -73 -197 -78 -199 c 2
 -125 -246 l 1xee
EndSplineSet
LCarets2: 1 180 
Ligature2: "Historic ligatures-1" h longs
EndChar
StartChar: f_f_y
Encoding: 61135 61135 355
Width: 680
GlyphClass: 3
Flags: W
HStem: -196 92<-67 -8.5 433 491.5> -46 21G<475 515> 354 92<146 214 306 394> 426 20G<585 625> 564 92<366 432.5>
VStem: 54 92<-124.417 354 446 545> 214 92<-150.996 354 446 551.891> 394 92<105 354> 554 92<-151.691 13 55 355>
LayerCount: 2
Back
SplineSet
620 360 m 25
 580 400 l 1049
400 -200 m 17
 400 -200 430 -150 460 -150 c 8
 497 -150 503 -200 540 -200 c 24
 570 -200 600 -150 600 -150 c 1
 600 380 l 1025
600 80 m 9
 520 0 l 25
 440 80 l 1
 440 380 l 1049
100 -150 m 1
 125 -150 174 -200 200 -200 c 0
 222 -200 260 -150 260 -150 c 1
 260 570 l 1
 340 650 l 17
 340 650 372 610 400 610 c 24
 428 610 460 650 461 650 c 1025
-100 -200 m 1
 -100 -200 -70 -150 -40 -150 c 8
 -3 -150 3 -200 40 -200 c 24
 70 -200 100 -150 100 -150 c 1
 100 570 l 1
 180 650 l 1
 180 650 225 570 260 570 c 1025
40 400 m 1
 420 400 l 25
 460 360 l 1025
EndSplineSet
Fore
SplineSet
-125 -246 m 1xef80
 -146 -225 l 1
 -146 -225 -136 -209 -122 -195 c 2
 -52 -124 l 2
 -51 -123 l 0
 -40 -112 -28 -104 -15 -104 c 0
 -2 -104 7 -110 15 -118 c 2
 36 -139 l 2
 37 -140 l 0
 39 -142 42 -145 44 -147 c 0
 47 -149 51 -151 54 -152 c 2
 54 354 l 1
 15 354 l 1
 -6 375 l 1
 54 435 l 1
 54 545 l 1
 205 696 l 1
 226 675 l 1
 226 675 241 649 259 627 c 0
 268 620 277 616 285 616 c 1
 365 696 l 1
 386 675 l 1
 387 674 l 0
 398 664 412 656 425 656 c 0
 440 656 457 668 468 678 c 2
 485 696 l 2
 486 696 l 2
 507 675 l 1
 505 672 l 2
 503 670 500 667 497 664 c 2
 426 594 l 2
 414 582 394 564 375 564 c 0
 357 564 339 580 327 592 c 0
 326 592 l 2
 315 604 l 1
 306 595 l 1
 306 446 l 1xef80
 445 446 l 1
 465 426 l 1
 486 405 l 1
 506 385 l 1
 486 365 l 1
 486 105 l 1
 545 46 l 1
 554 55 l 1
 554 355 l 1
 534 375 l 1
 605 446 l 1
 625 426 l 1xdf80
 646 405 l 1
 666 385 l 1
 646 365 l 1
 646 105 l 1
 646 -125 l 1
 646 -125 636 -141 622 -155 c 2
 552 -226 l 2
 541 -237 528 -246 515 -246 c 0
 502 -246 493 -240 485 -232 c 2
 464 -211 l 2
 461 -208 458 -206 456 -203 c 0
 450 -199 443 -196 435 -196 c 0
 431 -196 427 -197 422 -199 c 2
 375 -246 l 1
 354 -225 l 1
 354 -225 364 -209 378 -195 c 2
 448 -124 l 2
 449 -123 l 0
 460 -112 472 -104 485 -104 c 0
 498 -104 507 -110 515 -118 c 2
 536 -139 l 2
 537 -140 l 0
 539 -142 542 -145 544 -147 c 0
 547 -149 551 -151 554 -152 c 2
 554 13 l 1
 495 -46 l 1
 394 55 l 1
 394 354 l 1
 306 354 l 1
 306 -125 l 2
 306 -125 297 -138 284 -151 c 2
 283 -152 l 2
 212 -223 l 2
 200 -235 186 -246 175 -246 c 0
 151 -246 107 -203 81 -197 c 1
 52 -226 l 2
 41 -237 28 -246 15 -246 c 0
 2 -246 -7 -240 -15 -232 c 2
 -36 -211 l 2
 -39 -208 -42 -206 -44 -203 c 0
 -50 -199 -57 -196 -65 -196 c 0
 -69 -196 -73 -197 -78 -199 c 2
 -125 -246 l 1xef80
146 446 m 1
 214 446 l 1
 214 532 l 1
 209 535 204 540 199 545 c 2
 178 566 l 2
 168 576 159 588 151 599 c 1
 146 595 l 1
 146 446 l 1
146 354 m 1
 146 -111 l 1
 168 -123 194 -145 214 -152 c 1
 214 354 l 1
 146 354 l 1
EndSplineSet
LCarets2: 2 240 400 
Ligature2: "Ligatures-1" f f y
EndChar
StartChar: g_g
Encoding: 61137 61137 497
Width: 480
Flags: W
HStem: -196 92<73 131.5> -46 21G<115 155 286 315> 426 20G<165 205 245 285 325 365 405 445> 426 20G<165 205 245 285 325 365 405 445>
VStem: 34 92<70.6892 295> 194 92<-128.819 -37 70.6892 330> 354 92<-150.996 13 55 330>
CounterMasks: 1 0e
LayerCount: 2
Back
SplineSet
240 -150 m 24
 279 -170 314 -200 340 -200 c 0
 362 -200 400 -150 400 -150 c 9
 400 400 l 1
 400 400 380 368 360 368 c 24
 340 368 320 400 320 400 c 1
 240 320 l 25
 240 80 l 25
 320 0 l 25
 400 80 l 1041
40 -200 m 17
 40 -200 70 -150 100 -150 c 8
 137 -150 143 -200 180 -200 c 24
 210 -200 240 -150 240 -150 c 9
 240 400 l 1
 240 400 220 368 200 368 c 24
 180 368 160 400 160 400 c 1
 80 320 l 25
 80 80 l 25
 160 0 l 25
 240 80 l 1041
EndSplineSet
Fore
SplineSet
194 330 m 1xce
 188 325 182 322 175 322 c 0
 166 322 157 329 150 336 c 2
 133 352 l 1
 126 345 l 1
 126 105 l 2
 126 73 168 63 185 46 c 1
 194 55 l 1
 194 295 l 1
 194 330 l 1xce
194 13 m 1
 135 -46 l 1
 34 55 l 1
 34 295 l 1
 185 446 l 1
 206 425 l 1
 206 425 208 422 210 419 c 0
 214 416 220 414 225 414 c 0
 229 414 232 415 236 417 c 2
 265 446 l 1
 286 425 l 1
 286 387 l 1
 345 446 l 1
 366 425 l 1
 366 425 368 422 370 419 c 0
 374 416 380 414 385 414 c 0
 389 414 392 415 396 417 c 2
 425 446 l 1xee
 446 425 l 1
 446 -125 l 2
 446 -125 437 -138 424 -151 c 2
 423 -152 l 2
 352 -223 l 2
 340 -235 326 -246 315 -246 c 0
 290 -246 257 -218 220 -198 c 1
 192 -226 l 2
 181 -237 168 -246 155 -246 c 0
 142 -246 133 -240 125 -232 c 2
 104 -211 l 2
 101 -208 98 -206 96 -203 c 0
 90 -199 83 -196 75 -196 c 0
 71 -196 67 -197 62 -199 c 2
 15 -246 l 1
 -6 -225 l 1
 -6 -225 4 -209 18 -195 c 2
 88 -124 l 2
 89 -123 l 0
 100 -112 112 -104 125 -104 c 0
 138 -104 147 -110 155 -118 c 2
 176 -139 l 2
 177 -140 l 0
 179 -142 182 -145 184 -147 c 0
 187 -149 191 -151 194 -152 c 2
 194 13 l 1
354 330 m 1
 348 325 342 322 335 322 c 0
 326 322 317 329 310 336 c 2
 293 352 l 1
 286 345 l 1
 286 105 l 2
 286 73 328 63 345 46 c 1
 354 55 l 1
 354 330 l 1
354 13 m 1
 295 -46 l 1
 286 -37 l 1
 286 -116 l 1
 312 -131 335 -148 354 -153 c 1
 354 13 l 1
EndSplineSet
LCarets2: 1 240 
Ligature2: "Historic ligatures-1" g g
EndChar
StartChar: t_r
Encoding: 61144 61144 729
Width: 400
Flags: W
HStem: -46 21G<95 135 215 255> 354 92<146 194> 576 20G<105 145 325 365>
VStem: 54 92<46.2344 354 446 525> 194 92<75 345>
LayerCount: 2
Back
SplineSet
360 360 m 25
 320 400 l 25
 240 320 l 1049
220 40 m 25
 260 0 l 1049
240 380 m 9
 240 20 l 1025
100 550 m 1
 100 40 l 1
 140 0 l 1
 220 80 l 1025
40 400 m 1
 220 400 l 25
 260 360 l 1025
EndSplineSet
Fore
SplineSet
125 596 m 1
 146 575 l 1
 146 446 l 1
 245 446 l 1
 265 426 l 1
 286 405 l 1
 295 396 l 1
 345 446 l 1
 406 385 l 1
 335 314 l 1
 295 354 l 1
 286 345 l 1
 286 45 l 1
 306 25 l 1
 235 -46 l 1
 215 -26 l 1
 194 -5 l 1
 175 14 l 1
 115 -46 l 1
 54 15 l 1
 54 354 l 1
 15 354 l 1
 -6 375 l 1
 54 435 l 1
 54 525 l 1
 125 596 l 1
146 354 m 1
 146 65 l 2
 146 56 160 51 165 46 c 1
 194 75 l 1
 194 295 l 1
 194 354 l 1
 146 354 l 1
EndSplineSet
LCarets2: 1 240 
Ligature2: "Ligatures-1" t r
EndChar
StartChar: longs_c_h
Encoding: 62714 62714 706
Width: 680
Flags: W
HStem: -196 92<-67 -8.5> -46 21G<275 315 415 455 575 615> 426 20G<325 365 545 585> 426 20G<325 365 545 585> 564 92<206 272.5> 651 20G<425 465>
VStem: 54 92<-151.691 545> 194 92<70.6892 295> 394 92<45 53 95 293 397 580> 554 92<45 342.1>
LayerCount: 2
Back
SplineSet
-100 -200 m 17
 -100 -200 -70 -150 -40 -150 c 8
 -3 -150 3 -200 40 -200 c 24
 70 -200 100 -150 100 -150 c 1
 100 570 l 1
 180 650 l 17
 180 650 212 610 240 610 c 24
 268 610 300 650 301 650 c 1033
400 320 m 9
 320 400 l 25
 240 320 l 25
 240 80 l 25
 320 0 l 25
 400 80 l 1041
580 40 m 25
 620 0 l 1049
420 40 m 25
 460 0 l 1049
420 625 m 25
 460 585 l 1049
440 605 m 9
 440 20 l 1049
600 20 m 25
 600 340 l 25
 540 400 l 1
 440 300 l 1049
EndSplineSet
Fore
SplineSet
374 600 m 1xe7c0
 445 671 l 1
 465 651 l 1
 486 630 l 1
 506 610 l 1
 486 590 l 1
 486 367 l 1
 565 446 l 1
 646 365 l 1
 646 45 l 1
 666 25 l 1
 595 -46 l 1
 575 -26 l 1
 554 -5 l 1
 534 15 l 1
 554 35 l 1
 554 315 l 2
 554 335 526 343 515 354 c 1
 486 325 l 1
 486 45 l 1
 506 25 l 1
 435 -46 l 1
 415 -26 l 1
 394 -5 l 1
 374 15 l 1
 394 35 l 1
 394 53 l 1
 295 -46 l 1
 194 55 l 1
 194 295 l 1
 345 446 l 1
 394 397 l 1
 394 580 l 1
 374 600 l 1xe7c0
-125 -246 m 1
 -146 -225 l 1
 -146 -225 -136 -209 -122 -195 c 2
 -52 -124 l 2
 -51 -123 l 0
 -40 -112 -28 -104 -15 -104 c 0
 -2 -104 7 -110 15 -118 c 2
 36 -139 l 2
 37 -140 l 0
 39 -142 42 -145 44 -147 c 0
 47 -149 51 -151 54 -152 c 2
 54 545 l 1
 205 696 l 1
 226 675 l 1
 227 674 l 0
 238 664 252 656 265 656 c 0
 280 656 297 668 308 678 c 2
 325 696 l 2
 326 696 l 2
 347 675 l 1
 345 672 l 2
 343 670 341 668 338 665 c 2
 337 664 l 2
 266 594 l 2
 254 582 234 564 215 564 c 0xcbc0
 197 564 179 580 167 592 c 0
 155 604 l 1
 146 595 l 1
 146 -125 l 1
 146 -125 136 -141 122 -155 c 2
 52 -226 l 2
 41 -237 28 -246 15 -246 c 0
 2 -246 -7 -240 -15 -232 c 2
 -36 -211 l 2
 -39 -208 -42 -206 -44 -203 c 0
 -50 -199 -57 -196 -65 -196 c 0
 -69 -196 -73 -197 -78 -199 c 2
 -125 -246 l 1
394 275 m 1
 394 293 l 1
 375 274 l 1
 295 354 l 1
 286 345 l 1
 286 105 l 2
 286 73 328 63 345 46 c 1
 394 95 l 1
 394 275 l 1
EndSplineSet
LCarets2: 2 240 440 
Ligature2: "Ligatures-1" longs c h
EndChar
